<svg width="33.000000" height="33.000000" viewBox="0 0 33 33" fill="none" xmlns="http://www.w3.org/2000/svg" xmlns:xlink="http://www.w3.org/1999/xlink">
	<desc>
			Created with Pixso.
	</desc>
	<defs/>
	<rect id="Frame 1" width="32.800003" height="32.800133" transform="translate(-0.400024 -0.399902)" fill="#FFFFFF" fill-opacity="0"/>
	<path id="Path" d="M16 9.6C14.26 9.6 14.04 9.6 13.36 9.63C12.68 9.66 12.21 9.77 11.8 9.93C11.38 10.09 11.03 10.31 10.67 10.67C10.31 11.02 10.09 11.38 9.93 11.8C9.77 12.21 9.66 12.67 9.63 13.36C9.6 14.04 9.59 14.26 9.59 16C9.59 17.73 9.6 17.95 9.63 18.63C9.66 19.31 9.77 19.78 9.93 20.19C10.09 20.61 10.31 20.96 10.67 21.32C11.02 21.68 11.38 21.9 11.8 22.06C12.21 22.22 12.67 22.33 13.36 22.36C14.04 22.39 14.26 22.4 15.99 22.4C17.73 22.4 17.95 22.39 18.63 22.36C19.31 22.33 19.78 22.22 20.19 22.06C20.61 21.9 20.96 21.68 21.32 21.32C21.68 20.96 21.9 20.61 22.06 20.19C22.22 19.78 22.32 19.31 22.36 18.63C22.39 17.95 22.4 17.73 22.4 16C22.4 14.26 22.39 14.04 22.36 13.36C22.32 12.67 22.22 12.21 22.06 11.8C21.9 11.38 21.68 11.02 21.32 10.67C20.96 10.31 20.61 10.09 20.19 9.93C19.78 9.77 19.31 9.66 18.63 9.63C17.95 9.6 17.73 9.6 15.99 9.6L16 9.6ZM15.42 10.75C15.59 10.75 15.78 10.75 16 10.75C17.7 10.75 17.91 10.75 18.58 10.79C19.21 10.81 19.54 10.92 19.77 11.01C20.07 11.12 20.28 11.26 20.51 11.48C20.73 11.71 20.87 11.92 20.98 12.22C21.07 12.45 21.18 12.78 21.2 13.41C21.24 14.08 21.24 14.29 21.24 15.99C21.24 17.7 21.24 17.9 21.2 18.58C21.18 19.2 21.07 19.54 20.98 19.77C20.87 20.07 20.73 20.28 20.51 20.5C20.28 20.73 20.07 20.86 19.77 20.98C19.54 21.07 19.21 21.17 18.58 21.2C17.91 21.23 17.7 21.24 16 21.24C14.29 21.24 14.08 21.23 13.41 21.2C12.79 21.17 12.45 21.07 12.22 20.98C11.92 20.86 11.71 20.73 11.49 20.5C11.26 20.28 11.12 20.07 11.01 19.77C10.92 19.54 10.81 19.2 10.79 18.58C10.75 17.9 10.75 17.7 10.75 15.99C10.75 14.28 10.75 14.08 10.79 13.41C10.81 12.78 10.92 12.44 11.01 12.22C11.12 11.92 11.26 11.71 11.49 11.48C11.71 11.26 11.92 11.12 12.22 11C12.45 10.92 12.79 10.81 13.41 10.78C14 10.76 14.23 10.75 15.42 10.75L15.42 10.75ZM19.41 11.81C18.99 11.81 18.64 12.15 18.64 12.58C18.64 13 18.99 13.35 19.41 13.35C19.84 13.35 20.18 13 20.18 12.58C20.18 12.15 19.84 11.81 19.41 11.81ZM16 12.71C14.18 12.71 12.71 14.18 12.71 16C12.71 17.81 14.18 19.28 16 19.28C17.81 19.28 19.28 17.81 19.28 16C19.28 14.18 17.81 12.71 16 12.71ZM16 13.86C17.17 13.86 18.13 14.82 18.13 16C18.13 17.17 17.17 18.13 16 18.13C14.82 18.13 13.86 17.17 13.86 16C13.86 14.82 14.82 13.86 16 13.86Z" fill="#FFFFFF" fill-opacity="1.000000" fill-rule="evenodd"/>
</svg>
