<svg width="50.000000" height="31.000000" viewBox="0 0 50 31" fill="none" xmlns="http://www.w3.org/2000/svg" xmlns:xlink="http://www.w3.org/1999/xlink">
	<desc>
			Created with Pixso.
	</desc>
	<defs>
		<linearGradient x1="24.147425" y1="0.000000" x2="24.147425" y2="30.006376" id="paint_linear_1_275_0" gradientUnits="userSpaceOnUse">
			<stop stop-color="#377DFF"/>
			<stop offset="1.000000" stop-color="#8FBCFF"/>
		</linearGradient>
	</defs>
	<path id="Vector" d="M20.32 27.83L15.82 27.83L9.59 17.09C9.29 16.57 8.62 16.39 8.1 16.69C7.58 16.99 7.4 17.66 7.7 18.17L13.3 27.83L8.79 27.83L1.35 15L8.79 2.16L22.28 2.16L27.19 10.64C26.39 11.39 25.89 12.45 25.89 13.63C25.89 15.9 27.74 17.75 30.02 17.75C32.31 17.75 34.16 15.9 34.16 13.63C34.16 11.36 32.31 9.51 30.02 9.51C29.71 9.51 29.41 9.55 29.11 9.62L23.85 0.54C23.66 0.2 23.3 0 22.91 0L8.16 0C7.77 0 7.41 0.2 7.22 0.54L-0.86 14.46C-1.05 14.79 -1.05 15.2 -0.86 15.54L7.22 29.46C7.41 29.8 7.77 30 8.16 30L20.32 30C20.92 30 21.41 29.52 21.41 28.92C21.41 28.31 20.92 27.83 20.32 27.83ZM30.03 11.68C31.11 11.68 31.99 12.56 31.99 13.63C31.99 14.71 31.11 15.58 30.03 15.58C28.95 15.58 28.07 14.71 28.07 13.63C28.07 12.56 28.95 11.68 30.03 11.68ZM49.14 14.46L41.07 0.54C40.87 0.2 40.51 0 40.12 0L27.96 0C27.36 0 26.87 0.48 26.87 1.08C26.87 1.68 27.36 2.16 27.96 2.16L32.46 2.16L38.69 12.9C38.89 13.25 39.26 13.44 39.63 13.44C39.82 13.44 40.01 13.4 40.18 13.3C40.7 13 40.88 12.33 40.58 11.82L34.98 2.16L39.49 2.16L46.94 14.99L39.49 27.83L26 27.83L21.09 19.35C21.89 18.6 22.39 17.54 22.39 16.36C22.39 14.09 20.54 12.24 18.25 12.24C15.97 12.24 14.12 14.09 14.12 16.36C14.12 18.63 15.97 20.48 18.25 20.48C18.57 20.48 18.87 20.44 19.16 20.37L24.43 29.45C24.62 29.79 24.99 30 25.37 30L40.12 30C40.51 30 40.87 29.79 41.06 29.45L49.14 15.53C49.33 15.2 49.33 14.79 49.14 14.46ZM18.25 18.31C17.17 18.31 16.29 17.43 16.29 16.36C16.29 15.28 17.17 14.41 18.25 14.41C19.34 14.41 20.22 15.28 20.22 16.36C20.22 17.43 19.34 18.31 18.25 18.31Z" fill="url(#paint_linear_1_275_0)" fill-opacity="1.000000" fill-rule="nonzero"/>
</svg>
