<svg width="50.000000" height="50.000000" viewBox="0 0 50 50" fill="none" xmlns="http://www.w3.org/2000/svg" xmlns:xlink="http://www.w3.org/1999/xlink">
	<desc>
			Created with Pixso.
	</desc>
	<defs>
		<clipPath id="clip1_70">
			<rect id="ant-design:star-outlined" width="50.000000" height="50.000000" fill="white" fill-opacity="0"/>
		</clipPath>
	</defs>
	<rect id="ant-design:star-outlined" width="50.000000" height="50.000000" fill="#FFFFFF" fill-opacity="0"/>
	<g clip-path="url(#clip1_70)">
		<path id="Vector" d="M44.34 17.24L31.94 15.43L26.4 4.2C26.25 3.89 26 3.64 25.69 3.49C24.92 3.11 23.98 3.43 23.59 4.2L18.05 15.43L5.65 17.24C5.31 17.29 5 17.45 4.76 17.69C4.47 17.99 4.31 18.39 4.32 18.8C4.32 19.22 4.49 19.61 4.79 19.9L13.76 28.65L11.64 41C11.59 41.28 11.62 41.58 11.73 41.85C11.84 42.12 12.03 42.35 12.26 42.52C12.5 42.7 12.78 42.8 13.07 42.82C13.36 42.84 13.65 42.78 13.91 42.64L25 36.81L36.08 42.64C36.39 42.8 36.74 42.86 37.08 42.8C37.92 42.65 38.5 41.85 38.35 41L36.23 28.65L45.2 19.9C45.44 19.66 45.61 19.35 45.65 19.01C45.79 18.15 45.19 17.36 44.34 17.24ZM32.46 27.42L34.22 37.69L25 32.84L15.77 37.69L17.53 27.42L10.07 20.15L20.39 18.65L25 9.31L29.6 18.65L39.92 20.15L32.46 27.42Z" fill="#377DFF" fill-opacity="1.000000" fill-rule="nonzero"/>
	</g>
</svg>
