<svg width="36.718750" height="42.578125" viewBox="0 0 36.7188 42.5781" fill="none" xmlns="http://www.w3.org/2000/svg" xmlns:xlink="http://www.w3.org/1999/xlink">
	<desc>
			Created with Pixso.
	</desc>
	<defs/>
	<path id="Vector" d="M26.95 11.52L26.95 9.17C26.95 8.96 26.77 8.78 26.56 8.78L7.81 8.78C7.59 8.78 7.42 8.96 7.42 9.17L7.42 11.52C7.42 11.73 7.59 11.91 7.81 11.91L26.56 11.91C26.77 11.91 26.95 11.73 26.95 11.52ZM7.81 15.82C7.59 15.82 7.42 15.99 7.42 16.21L7.42 18.55C7.42 18.76 7.59 18.94 7.81 18.94L16.79 18.94C17.01 18.94 17.18 18.76 17.18 18.55L17.18 16.21C17.18 15.99 17.01 15.82 16.79 15.82L7.81 15.82ZM26.17 21.48C20.34 21.48 15.62 26.2 15.62 32.03C15.62 37.85 20.34 42.57 26.17 42.57C31.99 42.57 36.71 37.85 36.71 32.03C36.71 26.2 31.99 21.48 26.17 21.48ZM31.42 37.28C30.01 38.68 28.15 39.45 26.17 39.45C24.18 39.45 22.32 38.68 20.92 37.28C19.52 35.87 18.75 34.01 18.75 32.03C18.75 30.04 19.52 28.18 20.92 26.78C22.32 25.38 24.18 24.6 26.17 24.6C28.15 24.6 30.01 25.38 31.42 26.78C32.82 28.18 33.59 30.04 33.59 32.03C33.59 34.01 32.82 35.87 31.42 37.28ZM30.51 28.32L28.35 28.32C28.22 28.32 28.11 28.37 28.03 28.48L24.93 32.76L23.8 31.21C23.77 31.16 23.72 31.11 23.66 31.09C23.61 31.06 23.55 31.04 23.49 31.04L21.33 31.04C21.02 31.04 20.83 31.41 21.02 31.66L24.62 36.65C24.78 36.87 25.09 36.87 25.25 36.65L30.83 28.94C31.02 28.68 30.83 28.32 30.51 28.32ZM14.84 37.89L3.51 37.89L3.51 3.51L30.85 3.51L30.85 20.31C30.85 20.52 31.03 20.7 31.25 20.7L33.98 20.7C34.19 20.7 34.37 20.52 34.37 20.31L34.37 1.56C34.37 0.69 33.67 0 32.81 0L1.56 0C0.69 0 0 0.69 0 1.56L0 39.84C0 40.7 0.69 41.4 1.56 41.4L14.84 41.4C15.05 41.4 15.23 41.23 15.23 41.01L15.23 38.28C15.23 38.06 15.05 37.89 14.84 37.89Z" fill="#377DFF" fill-opacity="1.000000" fill-rule="nonzero"/>
</svg>
