<svg width="50.000000" height="50.000000" viewBox="0 0 50 50" fill="none" xmlns="http://www.w3.org/2000/svg" xmlns:xlink="http://www.w3.org/1999/xlink">
	<desc>
			Created with Pixso.
	</desc>
	<defs>
		<clipPath id="clip1_75">
			<rect id="fluent:people-settings-20-regular" width="50.000000" height="50.000000" fill="white" fill-opacity="0"/>
		</clipPath>
	</defs>
	<rect id="fluent:people-settings-20-regular" width="50.000000" height="50.000000" fill="#FFFFFF" fill-opacity="0"/>
	<g clip-path="url(#clip1_75)">
		<path id="Vector" d="M27.5 25C27.76 25 28.01 25.02 28.26 25.05C27.28 25.75 26.4 26.57 25.64 27.5L10 27.5C9.33 27.5 8.7 27.76 8.23 28.23C7.76 28.7 7.5 29.33 7.5 30L7.5 33.75C7.5 37.26 11.44 40 18.75 40C20.14 40 21.54 39.89 22.92 39.65C23.13 40.47 23.41 41.26 23.76 42.02C22.11 42.34 20.43 42.51 18.75 42.5C10.22 42.5 5 38.88 5 33.75L5 30C5 28.67 5.52 27.4 6.46 26.46C7.4 25.52 8.67 25 10 25L27.5 25Z" fill="#377DFF" fill-opacity="1.000000" fill-rule="nonzero"/>
		<path id="Vector" d="M42.5 16.25C42.5 17.9 41.84 19.49 40.66 20.66C39.49 21.84 37.9 22.5 36.25 22.5C34.59 22.5 33 21.84 31.83 20.66C30.65 19.49 30 17.9 30 16.25C30 14.59 30.65 13 31.83 11.83C33 10.65 34.59 10 36.25 10C37.9 10 39.49 10.65 40.66 11.83C41.84 13 42.5 14.59 42.5 16.25ZM36.25 12.5C35.25 12.5 34.3 12.89 33.59 13.59C32.89 14.3 32.5 15.25 32.5 16.25C32.5 17.24 32.89 18.19 33.59 18.9C34.3 19.6 35.25 20 36.25 20C37.24 20 38.19 19.6 38.9 18.9C39.6 18.19 40 17.24 40 16.25C40 15.25 39.6 14.3 38.9 13.59C38.19 12.89 37.24 12.5 36.25 12.5Z" fill="#377DFF" fill-opacity="1.000000" fill-rule="nonzero"/>
		<path id="Vector" d="M18.75 5C19.89 5 21.03 5.22 22.09 5.66C23.16 6.1 24.12 6.75 24.93 7.56C25.74 8.37 26.39 9.33 26.83 10.4C27.27 11.46 27.5 12.6 27.5 13.75C27.5 14.89 27.27 16.03 26.83 17.09C26.39 18.16 25.74 19.12 24.93 19.93C24.12 20.74 23.16 21.39 22.09 21.83C21.03 22.27 19.89 22.5 18.75 22.5C16.42 22.5 14.2 21.57 12.56 19.93C10.92 18.29 10 16.07 10 13.75C10 11.42 10.92 9.2 12.56 7.56C14.2 5.92 16.42 5 18.75 5ZM18.75 7.5C17.09 7.5 15.5 8.15 14.33 9.33C13.15 10.5 12.5 12.09 12.5 13.75C12.5 15.4 13.15 16.99 14.33 18.16C15.5 19.34 17.09 20 18.75 20C20.4 20 21.99 19.34 23.16 18.16C24.34 16.99 25 15.4 25 13.75C25 12.09 24.34 10.5 23.16 9.33C21.99 8.15 20.4 7.5 18.75 7.5Z" fill="#377DFF" fill-opacity="1.000000" fill-rule="nonzero"/>
		<path id="Vector" d="M26.25 31.8L27.15 32.67C27.63 33.14 28 33.69 28.26 34.31C28.52 34.92 28.65 35.58 28.65 36.25C28.65 36.91 28.52 37.57 28.26 38.18C28 38.8 27.63 39.35 27.15 39.82L26.25 40.7C26.58 41.47 26.98 42.21 27.46 42.88L28.45 42.58C29.1 42.39 29.79 42.33 30.46 42.41C31.14 42.48 31.79 42.7 32.38 43.04C32.97 43.38 33.49 43.84 33.89 44.39C34.3 44.93 34.59 45.55 34.75 46.22L35.04 47.43C35.84 47.52 36.65 47.52 37.45 47.43L37.73 46.22C37.89 45.55 38.18 44.93 38.59 44.39C39 43.84 39.51 43.38 40.1 43.04C40.69 42.7 41.34 42.48 42.02 42.41C42.7 42.33 43.38 42.39 44.03 42.58L45.02 42.88C45.5 42.21 45.91 41.47 46.23 40.7L45.34 39.82C44.86 39.35 44.48 38.8 44.22 38.18C43.97 37.57 43.83 36.91 43.83 36.25C43.83 35.58 43.97 34.92 44.22 34.31C44.48 33.69 44.86 33.14 45.34 32.67L46.23 31.8C45.91 31.02 45.51 30.29 45.02 29.61L44.03 29.91C43.38 30.1 42.7 30.16 42.02 30.08C41.34 30.01 40.69 29.79 40.1 29.45C39.51 29.11 39 28.65 38.59 28.11C38.18 27.56 37.89 26.94 37.73 26.27L37.45 25.06C36.65 24.97 35.84 24.97 35.04 25.06L34.75 26.27C34.6 26.94 34.3 27.56 33.9 28.11C33.49 28.65 32.98 29.11 32.39 29.45C31.8 29.79 31.14 30.01 30.47 30.08C29.79 30.16 29.1 30.1 28.45 29.91L27.46 29.61C26.98 30.29 26.58 31.02 26.25 31.8ZM36.24 38.75C35.58 38.75 34.94 38.48 34.47 38.01C34.01 37.54 33.74 36.91 33.74 36.25C33.74 35.58 34.01 34.95 34.47 34.48C34.94 34.01 35.58 33.75 36.24 33.75C36.91 33.75 37.54 34.01 38.01 34.48C38.48 34.95 38.74 35.58 38.74 36.25C38.74 36.91 38.48 37.54 38.01 38.01C37.54 38.48 36.91 38.75 36.24 38.75Z" fill="#377DFF" fill-opacity="1.000000" fill-rule="nonzero"/>
	</g>
</svg>
