<svg width="50.000000" height="50.000000" viewBox="0 0 50 50" fill="none" xmlns="http://www.w3.org/2000/svg" xmlns:xlink="http://www.w3.org/1999/xlink">
	<desc>
			Created with Pixso.
	</desc>
	<defs>
		<clipPath id="clip1_84">
			<rect id="mdi:web" width="50.000000" height="50.000000" fill="white" fill-opacity="0"/>
		</clipPath>
	</defs>
	<rect id="mdi:web" width="50.000000" height="50.000000" fill="#FFFFFF" fill-opacity="0"/>
	<g clip-path="url(#clip1_84)">
		<path id="Vector" d="M34.08 29.16C34.24 27.79 34.37 26.41 34.37 25C34.37 23.58 34.24 22.2 34.08 20.83L41.12 20.83C41.45 22.16 41.66 23.56 41.66 25C41.66 26.43 41.45 27.83 41.12 29.16L34.08 29.16ZM30.39 40.75C31.64 38.43 32.6 35.93 33.27 33.33L39.41 33.33C37.39 36.8 34.19 39.44 30.39 40.75ZM29.87 29.16L20.12 29.16C19.91 27.79 19.79 26.41 19.79 25C19.79 23.58 19.91 22.18 20.12 20.83L29.87 20.83C30.06 22.18 30.2 23.58 30.2 25C30.2 26.41 30.06 27.79 29.87 29.16ZM24.99 41.58C23.27 39.08 21.87 36.31 21.02 33.33L28.97 33.33C28.12 36.31 26.72 39.08 24.99 41.58ZM16.66 16.66L10.58 16.66C12.58 13.18 15.78 10.54 19.58 9.25C18.33 11.56 17.39 14.06 16.66 16.66ZM10.58 33.33L16.66 33.33C17.39 35.93 18.33 38.43 19.58 40.75C15.78 39.44 12.59 36.8 10.58 33.33ZM8.87 29.16C8.54 27.83 8.33 26.43 8.33 25C8.33 23.56 8.54 22.16 8.87 20.83L15.91 20.83C15.74 22.2 15.62 23.58 15.62 25C15.62 26.41 15.74 27.79 15.91 29.16L8.87 29.16ZM24.99 8.39C26.72 10.89 28.12 13.68 28.97 16.66L21.02 16.66C21.87 13.68 23.27 10.89 24.99 8.39ZM39.41 16.66L33.27 16.66C32.61 14.08 31.65 11.59 30.39 9.25C34.22 10.56 37.41 13.2 39.41 16.66ZM24.99 4.16C13.47 4.16 4.16 13.54 4.16 25C4.16 30.52 6.36 35.82 10.26 39.73C12.2 41.66 14.49 43.2 17.02 44.24C19.55 45.29 22.26 45.83 24.99 45.83C30.52 45.83 35.82 43.63 39.73 39.73C43.63 35.82 45.83 30.52 45.83 25C45.83 22.26 45.29 19.55 44.24 17.02C43.2 14.49 41.66 12.2 39.73 10.26C37.79 8.33 35.5 6.79 32.97 5.75C30.44 4.7 27.73 4.16 24.99 4.16Z" fill="#377DFF" fill-opacity="1.000000" fill-rule="nonzero"/>
	</g>
</svg>
