<svg width="45.833328" height="41.666748" viewBox="0 0 45.8333 41.6667" fill="none" xmlns="http://www.w3.org/2000/svg" xmlns:xlink="http://www.w3.org/1999/xlink">
	<desc>
			Created with Pixso.
	</desc>
	<defs/>
	<path id="Vector" d="M16.66 8.33L8.33 8.33L8.33 16.66L12.5 16.66L12.5 12.5L16.66 12.5L16.66 8.33ZM37.5 16.66L33.33 16.66L33.33 20.83L29.16 20.83L29.16 25L37.5 25L37.5 16.66ZM41.66 29.16L4.16 29.16L4.16 4.16L41.66 4.16L41.66 29.16ZM41.66 0L4.16 0C1.85 0 0 1.85 0 4.16L0 29.16C0 30.27 0.43 31.33 1.22 32.11C2 32.89 3.06 33.33 4.16 33.33L18.75 33.33L18.75 37.5L14.58 37.5L14.58 41.66L31.25 41.66L31.25 37.5L27.08 37.5L27.08 33.33L41.66 33.33C42.77 33.33 43.83 32.89 44.61 32.11C45.39 31.33 45.83 30.27 45.83 29.16L45.83 4.16C45.83 3.06 45.39 2 44.61 1.22C43.83 0.43 42.77 0 41.66 0Z" fill="#377DFF" fill-opacity="1.000000" fill-rule="nonzero"/>
</svg>
