<svg width="50.000000" height="50.000000" viewBox="0 0 50 50" fill="none" xmlns="http://www.w3.org/2000/svg" xmlns:xlink="http://www.w3.org/1999/xlink">
	<desc>
			Created with Pixso.
	</desc>
	<defs>
		<clipPath id="clip1_65">
			<rect id="ph:sliders-horizontal-light" width="50.000000" height="50.000000" fill="white" fill-opacity="0"/>
		</clipPath>
	</defs>
	<rect id="ph:sliders-horizontal-light" width="50.000000" height="50.000000" fill="#FFFFFF" fill-opacity="0"/>
	<g clip-path="url(#clip1_65)">
		<path id="Vector" d="M42.18 32.42L37.75 32.42C37.48 31.3 36.85 30.31 35.96 29.6C35.06 28.89 33.95 28.51 32.81 28.51C31.66 28.51 30.56 28.89 29.66 29.6C28.76 30.31 28.13 31.3 27.87 32.42L7.81 32.42C7.5 32.42 7.2 32.54 6.98 32.76C6.76 32.98 6.64 33.28 6.64 33.59C6.64 33.9 6.76 34.2 6.98 34.42C7.2 34.64 7.5 34.76 7.81 34.76L27.87 34.76C28.13 35.87 28.76 36.86 29.66 37.57C30.56 38.28 31.66 38.67 32.81 38.67C33.95 38.67 35.06 38.28 35.96 37.57C36.85 36.86 37.48 35.87 37.75 34.76L42.18 34.76C42.49 34.76 42.79 34.64 43.01 34.42C43.23 34.2 43.35 33.9 43.35 33.59C43.35 33.28 43.23 32.98 43.01 32.76C42.79 32.54 42.49 32.42 42.18 32.42ZM32.81 36.32C32.27 36.32 31.74 36.16 31.29 35.86C30.84 35.56 30.49 35.13 30.28 34.63C30.07 34.13 30.02 33.58 30.13 33.05C30.23 32.52 30.49 32.04 30.87 31.65C31.26 31.27 31.74 31.01 32.27 30.91C32.8 30.8 33.35 30.85 33.85 31.06C34.35 31.27 34.78 31.62 35.08 32.07C35.38 32.52 35.54 33.05 35.54 33.59C35.54 34.31 35.25 35.01 34.74 35.52C34.23 36.03 33.53 36.32 32.81 36.32ZM7.81 17.57L15.37 17.57C15.63 18.68 16.26 19.67 17.16 20.38C18.06 21.09 19.16 21.48 20.31 21.48C21.45 21.48 22.56 21.09 23.46 20.38C24.35 19.67 24.98 18.68 25.25 17.57L42.18 17.57C42.49 17.57 42.79 17.45 43.01 17.23C43.23 17.01 43.35 16.71 43.35 16.4C43.35 16.09 43.23 15.79 43.01 15.57C42.79 15.35 42.49 15.23 42.18 15.23L25.25 15.23C24.98 14.12 24.35 13.13 23.46 12.42C22.56 11.71 21.45 11.32 20.31 11.32C19.16 11.32 18.06 11.71 17.16 12.42C16.26 13.13 15.63 14.12 15.37 15.23L7.81 15.23C7.5 15.23 7.2 15.35 6.98 15.57C6.76 15.79 6.64 16.09 6.64 16.4C6.64 16.71 6.76 17.01 6.98 17.23C7.2 17.45 7.5 17.57 7.81 17.57ZM20.31 13.67C20.85 13.67 21.38 13.83 21.83 14.13C22.28 14.43 22.63 14.85 22.83 15.35C23.04 15.85 23.09 16.4 22.99 16.93C22.88 17.46 22.62 17.95 22.24 18.33C21.86 18.72 21.37 18.98 20.84 19.08C20.31 19.19 19.76 19.13 19.26 18.93C18.76 18.72 18.33 18.37 18.03 17.92C17.73 17.47 17.57 16.94 17.57 16.4C17.57 15.67 17.86 14.98 18.37 14.47C18.89 13.95 19.58 13.67 20.31 13.67Z" fill="#377DFF" fill-opacity="1.000000" fill-rule="nonzero"/>
	</g>
</svg>
