<svg width="20.000000" height="20.000000" viewBox="0 0 20 20" fill="none" xmlns="http://www.w3.org/2000/svg" xmlns:xlink="http://www.w3.org/1999/xlink">
	<desc>
			Created with Pixso.
	</desc>
	<defs>
		<clipPath id="clip1_321">
			<rect id="dashicons:instagram" width="20.000000" height="20.000000" fill="white" fill-opacity="0"/>
		</clipPath>
	</defs>
	<g clip-path="url(#clip1_321)">
		<path id="Vector" d="M12.7 10C12.7 8.5 11.49 7.3 9.99 7.3C8.49 7.3 7.29 8.5 7.29 10C7.29 11.5 8.49 12.7 9.99 12.7C11.49 12.7 12.7 11.5 12.7 10ZM14.09 10C14.09 12.3 12.29 14.1 9.99 14.1C7.69 14.1 5.89 12.3 5.89 10C5.89 7.69 7.69 5.89 9.99 5.89C12.29 5.89 14.09 7.69 14.09 10ZM15.2 5.69C15.2 6.3 14.79 6.69 14.2 6.69C13.59 6.69 13.2 6.3 13.2 5.69C13.2 5.1 13.59 4.69 14.2 4.69C14.79 4.69 15.2 5.19 15.2 5.69ZM9.99 3.39C8.79 3.39 6.29 3.3 5.29 3.69C4.59 4 3.99 4.6 3.79 5.3C3.39 6.3 3.49 8.8 3.49 10C3.49 11.2 3.39 13.7 3.79 14.7C3.99 15.39 4.59 16 5.29 16.2C6.29 16.6 8.89 16.5 9.99 16.5C11.09 16.5 13.7 16.6 14.7 16.2C15.39 15.89 15.89 15.39 16.2 14.7C16.59 13.6 16.49 11.1 16.49 10C16.49 8.89 16.59 6.3 16.2 5.3C15.99 4.6 15.39 4 14.7 3.8C13.7 3.3 11.2 3.39 9.99 3.39ZM17.99 10L17.99 13.3C17.99 14.5 17.59 15.7 16.7 16.7C15.79 17.6 14.59 18 13.29 18L6.69 18C5.49 18 4.29 17.6 3.29 16.7C2.49 15.8 1.99 14.6 1.99 13.3L1.99 10L1.99 6.69C1.99 5.39 2.49 4.19 3.29 3.3C4.29 2.5 5.49 2 6.69 2L13.29 2C14.49 2 15.7 2.39 16.7 3.3C17.49 4.19 17.99 5.39 17.99 6.69L17.99 10Z" fill="#FFFFFF" fill-opacity="1.000000" fill-rule="nonzero"/>
	</g>
</svg>
