<svg width="20.000000" height="20.000000" viewBox="0 0 20 20" fill="none" xmlns="http://www.w3.org/2000/svg" xmlns:xlink="http://www.w3.org/1999/xlink">
	<desc>
			Created with Pixso.
	</desc>
	<defs>
		<clipPath id="clip1_318">
			<rect id="bx:bxl-linkedin" width="20.000000" height="20.000000" fill="white" fill-opacity="0"/>
		</clipPath>
	</defs>
	<g clip-path="url(#clip1_318)">
		<path id="Vector" d="M5.97 4.17C5.97 5.18 5.15 5.99 4.15 5.99C3.14 5.99 2.32 5.18 2.32 4.17C2.32 3.16 3.14 2.35 4.15 2.35C5.15 2.35 5.97 3.16 5.97 4.17Z" fill="#FFFFFF" fill-opacity="1.000000" fill-rule="evenodd"/>
		<path id="Vector" d="M7.69 7.37L7.69 17.49L10.83 17.49L10.83 12.49C10.83 11.17 11.08 9.89 12.72 9.89C14.33 9.89 14.35 11.4 14.35 12.57L14.35 17.49L17.5 17.49L17.5 11.94C17.5 9.22 16.91 7.12 13.72 7.12C12.19 7.12 11.17 7.96 10.75 8.76L10.71 8.76L10.71 7.37L7.69 7.37ZM2.57 7.37L5.72 7.37L5.72 17.49L2.57 17.49L2.57 7.37Z" fill="#FFFFFF" fill-opacity="1.000000" fill-rule="nonzero"/>
	</g>
</svg>
