<svg width="20.000000" height="20.000000" viewBox="0 0 20 20" fill="none" xmlns="http://www.w3.org/2000/svg" xmlns:xlink="http://www.w3.org/1999/xlink">
	<desc>
			Created with Pixso.
	</desc>
	<defs>
		<clipPath id="clip1_330">
			<rect id="entypo:location-pin" width="20.000000" height="20.000000" fill="white" fill-opacity="0"/>
		</clipPath>
	</defs>
	<rect id="entypo:location-pin" width="20.000000" height="20.000000" fill="#FFFFFF" fill-opacity="0"/>
	<g clip-path="url(#clip1_330)">
		<path id="Vector" d="M10 2C7.23 2 5 4.23 5 6.99C5 11.77 10 17.99 10 17.99C10 17.99 15 11.77 15 6.99C15 4.23 12.76 2 10 2ZM10 9.75C9.28 9.75 8.59 9.47 8.09 8.96C7.58 8.46 7.3 7.77 7.3 7.05C7.3 6.34 7.58 5.65 8.09 5.15C8.59 4.64 9.28 4.35 10 4.35C10.71 4.35 11.4 4.64 11.9 5.15C12.41 5.65 12.7 6.34 12.7 7.05C12.7 7.77 12.41 8.46 11.9 8.96C11.4 9.47 10.71 9.75 10 9.75Z" fill="#377DFF" fill-opacity="1.000000" fill-rule="nonzero"/>
	</g>
</svg>
