<svg width="20.000000" height="20.000000" viewBox="0 0 20 20" fill="none" xmlns="http://www.w3.org/2000/svg" xmlns:xlink="http://www.w3.org/1999/xlink">
	<desc>
			Created with Pixso.
	</desc>
	<defs>
		<clipPath id="clip1_341">
			<rect id="fluent:mail-20-filled" width="20.000000" height="20.000000" fill="white" fill-opacity="0"/>
		</clipPath>
	</defs>
	<rect id="fluent:mail-20-filled" width="20.000000" height="20.000000" fill="#FFFFFF" fill-opacity="0"/>
	<g clip-path="url(#clip1_341)">
		<path id="Vector" d="M18 7.37L18 14.5C18 15.16 17.73 15.79 17.26 16.26C16.79 16.73 16.16 17 15.5 17L4.5 17C3.83 17 3.2 16.73 2.73 16.26C2.26 15.79 2 15.16 2 14.5L2 7.37L9.74 11.93C9.82 11.97 9.91 12 10 12C10.08 12 10.17 11.97 10.25 11.93L18 7.37ZM15.5 4C16.11 4 16.7 4.22 17.16 4.63C17.62 5.04 17.91 5.61 17.98 6.22L10 10.91L2.01 6.22C2.08 5.61 2.37 5.04 2.83 4.63C3.29 4.22 3.88 4 4.5 4L15.5 4Z" fill="#377DFF" fill-opacity="1.000000" fill-rule="nonzero"/>
	</g>
</svg>
