<svg width="20.000000" height="20.000000" viewBox="0 0 20 20" fill="none" xmlns="http://www.w3.org/2000/svg" xmlns:xlink="http://www.w3.org/1999/xlink">
	<desc>
			Created with Pixso.
	</desc>
	<defs>
		<clipPath id="clip1_335">
			<rect id="fluent:call-20-filled" width="20.000000" height="20.000000" fill="white" fill-opacity="0"/>
		</clipPath>
	</defs>
	<rect id="fluent:call-20-filled" width="20.000000" height="20.000000" fill="#FFFFFF" fill-opacity="0"/>
	<g clip-path="url(#clip1_335)">
		<path id="Vector" d="M6.98 2.06C7.42 1.93 7.89 1.95 8.31 2.12C8.74 2.3 9.09 2.61 9.31 3.01L9.38 3.16L10.05 4.63C10.25 5.07 10.31 5.57 10.23 6.05C10.15 6.54 9.94 6.99 9.6 7.35L9.47 7.48L8.43 8.45C8.24 8.63 8.38 9.32 9.06 10.5C9.67 11.56 10.17 12.05 10.42 12.08L10.46 12.08L10.51 12.07L12.56 11.44C12.84 11.36 13.13 11.35 13.41 11.43C13.69 11.51 13.93 11.67 14.13 11.88L14.22 12L15.57 13.88C15.84 14.24 15.97 14.69 15.95 15.15C15.93 15.6 15.75 16.03 15.45 16.37L15.33 16.5L14.78 17.01C14.3 17.47 13.69 17.79 13.03 17.91C12.37 18.04 11.69 17.97 11.07 17.72C9.13 16.94 7.38 15.16 5.78 12.39C4.18 9.62 3.51 7.2 3.81 5.13C3.9 4.5 4.16 3.91 4.56 3.42C4.96 2.93 5.48 2.56 6.07 2.34L6.27 2.28L6.98 2.06Z" fill="#377DFF" fill-opacity="1.000000" fill-rule="nonzero"/>
	</g>
</svg>
